inDegrees=no
num_controls=7
num_derivatives=13
num_iterations=74
num_multipliers=7
num_parameters=0
num_slacks=7
num_states=26
objective=0.474175
objective_accelerations=0.039731
objective_balance=0.001108
objective_effort=0.016721
objective_height=0.405961
objective_ligament=0.010654
solver_duration=1047.142400
status=Solve_Succeeded
success=true
DataType=double
version=3
OpenSimVersion=4.5
endheader
time	/jointset/ground_pelvis/pelvis_tilt/value	/jointset/ground_pelvis/pelvis_tx/value	/jointset/ground_pelvis/pelvis_ty/value	/jointset/hip_l/hip_flexion_l/value	/jointset/hip_l/hip_adduction_l/value	/jointset/hip_l/hip_rotation_l/value	/jointset/back/lumbar_extension/value	/jointset/patellofemoral_l/patellar_flexion_l/value	/jointset/knee_l/knee_flexion_l/value	/jointset/knee_l/knee_adduction_l/value	/jointset/knee_l/knee_rotation_l/value	/jointset/ankle_l/ankle_angle_l/value	/jointset/subtalar_l/subtalar_angle_l/value	/jointset/ground_pelvis/pelvis_tilt/speed	/jointset/ground_pelvis/pelvis_tx/speed	/jointset/ground_pelvis/pelvis_ty/speed	/jointset/hip_l/hip_flexion_l/speed	/jointset/hip_l/hip_adduction_l/speed	/jointset/hip_l/hip_rotation_l/speed	/jointset/back/lumbar_extension/speed	/jointset/patellofemoral_l/patellar_flexion_l/speed	/jointset/knee_l/knee_flexion_l/speed	/jointset/knee_l/knee_adduction_l/speed	/jointset/knee_l/knee_rotation_l/speed	/jointset/ankle_l/ankle_angle_l/speed	/jointset/subtalar_l/subtalar_angle_l/speed	/forceset/tau_hip_flexion_l	/forceset/tau_hip_adduction_l	/forceset/tau_hip_rotation_l	/forceset/tau_knee_flexion_l	/forceset/tau_ankle_angle_l	/forceset/tau_subtalar_angle_l	/forceset/tau_lumbar_extension	lambda_cid13_p0	lambda_cid13_p1	lambda_cid13_p2	lambda_cid13_p3	lambda_cid13_p4	lambda_cid13_p5	lambda_cid14_p0	/jointset/ground_pelvis/pelvis_tilt/accel	/jointset/ground_pelvis/pelvis_tx/accel	/jointset/ground_pelvis/pelvis_ty/accel	/jointset/hip_l/hip_flexion_l/accel	/jointset/hip_l/hip_adduction_l/accel	/jointset/hip_l/hip_rotation_l/accel	/jointset/back/lumbar_extension/accel	/jointset/patellofemoral_l/patellar_flexion_l/accel	/jointset/knee_l/knee_flexion_l/accel	/jointset/knee_l/knee_adduction_l/accel	/jointset/knee_l/knee_rotation_l/accel	/jointset/ankle_l/ankle_angle_l/accel	/jointset/subtalar_l/subtalar_angle_l/accel	gamma_cid13_p0	gamma_cid13_p1	gamma_cid13_p2	gamma_cid13_p3	gamma_cid13_p4	gamma_cid13_p5	gamma_cid14_p0
0	0.04595944615518823	0.108930603859986	0.9028841460529966	0.1266922784136757	-0.3698697828712785	-0.2393706368260586	-0.2144969558742783	0.2051545070143218	0.2051545070141877	-0.1732714292465553	-0.1737311283367285	0.09024313228550125	0.07938924995839169	0	0	0	0	0	0	0	0	0	0	0	0	0	0.1297288610143647	-0.04838207556840848	-0.0135890895776808	-0.2539768305251142	0.1645839676133663	-0.09412775739924889	-0.06078005504942051	20.05553115588231	37.27177389724579	-6.113115060068508	-0.6876899461480976	-456.7051760226602	-45.77919705430372	-26.71309476455645	-5.613470565035462	-1.870047624433477	-0.6507596930905095	11.60603676160145	0.2888328018870287	1.51542303096763	-3.884991382632654	4.823401191799633	4.823401191799435	1.802841556318048	-0.3467427945824035	-0.6126078418443356	0.1098916318582515	-5.614754905164332e-10	1.245926377910192e-10	-3.692094186567328e-08	8.315031132654637e-09	-4.864585563927838e-09	5.831768301126648e-09	7.228861760514716e-09
0.01	0.04568670032230987	0.1088374717792717	0.9028524273225308	0.127260021341538	-0.3698555196605378	-0.2392883276749102	-0.2146946942793491	0.2053890365559736	0.2053890365559101	-0.1731838046431323	-0.1737398520060169	0.09021103505356151	0.07939402940077482	-0.05430445587954044	-0.01861818804149587	-0.006333405384135035	0.113165176747957	0.002780292459857473	0.01670803113729667	-0.03934861352327101	0.04672140368524621	0.04672140368524442	0.01731139922474293	-0.001472371431136891	-0.006474409081581437	0.000857890637867372	0.125159979878858	-0.05758178758442373	-0.0123844214397012	-0.2470758726203786	0.1522550937441351	-0.08252803257479026	-0.05745561738937604	16.78087957117071	32.4065062171361	-4.879562354857992	1.202621173565415	-456.4606457383454	-55.22145704060657	-26.71259492707652	-5.302224985100708	-1.85646851910543	-0.6230808275066068	11.11424811313297	0.2617775250479584	1.785429599472727	-3.929936210183689	4.568832815928121	4.568832815928238	1.663258718075844	-0.006636791339314312	-0.6731026803631983	0.05904256220332825	1.710395500392671e-08	1.406044699698559e-07	-2.840734392524359e-08	8.42402019619662e-09	-6.559202996497173e-08	1.809232443255481e-08	3.172290451969783e-08
0.02	0.04487825155339978	0.1085584049931195	0.9027576845649283	0.1289479140331309	-0.3698156235137632	-0.2390315509235391	-0.215279946794306	0.2060852447062982	0.2060852447062811	-0.1729294721251212	-0.1737551298843174	0.09011254468295779	0.07940444870602653	-0.1071405871862557	-0.03718694108757514	-0.01260480542735823	0.2240299527655984	0.005126587200171898	0.03489352004907701	-0.07750282196674249	0.09233572173214953	0.09233572173214749	0.03334158295046614	-0.001310841820692165	-0.01327862772511989	0.001127972573830732	0.1205910987427823	-0.06678149960005274	-0.0111797533024914	-0.2401749147159031	0.1399262198748935	-0.07092830774990877	-0.05413117972979909	13.52743663192164	27.5420548175991	-3.65131455058272	3.171267494862283	-455.7649407715665	-64.56862609133452	-26.71072504728929	-5.319805650468958	-1.860160625351339	-0.6383586249081107	11.14595661553873	0.2020332579783231	1.810914585864409	-3.646110366671742	4.601984064131684	4.601984064131794	1.54659845651407	-0.01996258626640073	-0.6785697542368964	-0.007670108523004286	3.476938549836986e-08	2.810843473019208e-07	-1.98937459848139e-08	8.533009259738602e-09	-1.263194743660156e-07	3.035288056398297e-08	5.621694727888095e-08
0.03	0.04354739873932146	0.1080948520072079	0.9026004306990105	0.131732514957016	-0.369754085815313	-0.2385905515553282	-0.2162380094439986	0.207231424787068	0.2072314247868584	-0.1725205344427457	-0.1737648690256033	0.0899449383289135	0.079415241243407	-0.1588829934385681	-0.05541839604425072	-0.01884125325088511	0.3324074125948899	0.00714600724510462	0.05310907172791204	-0.1136763648749001	0.1366274432743337	0.1366274432743289	0.04829942475036783	-0.0007240715555272496	-0.02024084092454813	0.0009955402537878103	0.1166844943509941	-0.0623752647993566	-0.01053521979078445	-0.2365090237995079	0.1374367614478695	-0.07315796198207297	-0.05099239410277097	12.65242959499953	28.58534056841784	-3.728250276771604	3.180765183635271	-455.3045871584444	-61.68173749011175	-26.70710705141597	-5.079404424707802	-1.788847219223239	-0.6156061944204299	10.61122226833099	0.1966080942893623	1.797293912455635	-3.537974785687393	4.301827189785021	4.301827189784644	1.448446430992233	0.08492411462808885	-0.7047604086690714	-0.02132215603102908	3.04073203511025e-08	2.502950893713372e-07	7.379375308797567e-09	6.148460168387651e-09	-1.986459610740173e-07	-3.339727679516477e-09	5.16182969777385e-08
